<svg viewBox="0 0 432 65" xmlns="http://www.w3.org/2000/svg"><defs><linearGradient id="a" x1=".017%" y1="49.942%" y2="49.942%"><stop stop-color="#6051F2" offset="0"/><stop stop-color="#6963F4" offset=".34"/><stop stop-color="#7D8CF9" offset=".95"/></linearGradient><linearGradient id="b" x1="-.105%" x2="100.03%" y1="49.883%" y2="49.883%"><stop stop-color="#6051F2" offset="0"/><stop stop-color="#6459F3" offset=".24"/><stop stop-color="#6E6DF5" offset=".6"/><stop stop-color="#7D8CF9" offset="1"/></linearGradient><linearGradient id="c" x1="-.04%" y1="49.98%" y2="49.98%"><stop stop-color="#6051F2" offset="0"/><stop stop-color="#645AF3" offset=".1"/><stop stop-color="#7275F6" offset=".45"/><stop stop-color="#7A86F8" offset=".76"/><stop stop-color="#7D8CF9" offset="1"/></linearGradient></defs><g fill-rule="nonzero" fill="none"><path d="M85.198 48.438L76.13 31.672h-7.829v16.766h-9.664V1.78h19.952c4.53 0 8.168 1.318 10.91 3.953 2.744 2.636 4.116 6.302 4.116 10.997.086 2.86-.59 5.69-1.96 8.201a12.753 12.753 0 01-5.522 5.147l9.914 18.36h-10.85zM68.239 23.15h9.165a6.45 6.45 0 004.65-1.692 6.098 6.098 0 001.781-4.674 6.232 6.232 0 00-1.78-4.79 6.486 6.486 0 00-4.65-1.684h-9.166v12.84zM104.59.187a5.346 5.346 0 013.901 1.594 5.342 5.342 0 011.586 3.9 5.208 5.208 0 01-1.586 3.829 5.345 5.345 0 01-3.901 1.584 5.212 5.212 0 01-3.866-1.584 5.288 5.288 0 01-1.559-3.83 5.28 5.28 0 011.622-3.9A5.212 5.212 0 01104.59.188zm4.552 48.251h-9.104V16.214h9.104v32.224zM133.83 15.582a14.745 14.745 0 0111.259 4.621c2.886 3.075 4.329 7.124 4.329 12.145s-1.443 9.08-4.329 12.172a14.77 14.77 0 01-11.259 4.612c-3.949 0-6.963-1.142-9.04-3.428v18.627h-9.104V16.25h8.604v3.34c1.996-2.666 5.175-4.001 9.54-4.007zm-1.434 7.791a7.225 7.225 0 00-5.514 2.217 8.395 8.395 0 00-2.093 6.02v1.486a8.395 8.395 0 002.093 6.02 7.93 7.93 0 0011.18-.16c1.436-1.58 2.152-3.782 2.146-6.607-.006-2.826-.722-5.025-2.147-6.598a7.252 7.252 0 00-5.665-2.378zM184.21 35.225h-22.099a6.882 6.882 0 001.87 4.844 6.62 6.62 0 004.828 1.78c3.242 0 5.217-1.187 5.924-3.561l9.165.436a11.69 11.69 0 01-5.015 7.542 16.617 16.617 0 01-9.798 2.93c-4.988 0-9.008-1.517-12.06-4.55-3.052-3.034-4.581-7.109-4.587-12.225 0-5.147 1.517-9.228 4.552-12.243 3.034-3.016 6.983-4.524 11.847-4.524 4.69 0 8.432 1.425 11.223 4.274 2.79 2.85 4.183 6.767 4.177 11.753l-.027 3.544zm-15.463-12.528a6.495 6.495 0 00-4.703 1.71 6.944 6.944 0 00-1.933 4.772h12.97a7.184 7.184 0 00-1.711-4.772 5.96 5.96 0 00-4.623-1.71zM225.25 48.438l-11.17-19.705-1.122.062h-13.361v19.642h-3.634V1.78h17.022a14.531 14.531 0 019.958 3.562c2.619 2.306 3.928 5.61 3.928 9.973 0 6.793-3.492 11.157-8.987 12.84l11.48 20.284h-4.114zm-25.635-22.946h12.907c6.057 0 10.608-3.49 10.608-10.222 0-6.731-4.552-10.222-10.608-10.222h-12.907v20.444zM257.1 28.297v20.141h-3.563v-4.737c-2.307 3.562-5.798 5.343-10.475 5.343-6.048 0-10.038-3.117-10.038-8.673s3.91-8.77 11.544-9.207l8.979-.56v-2.245c0-5.672-2.62-8.85-7.857-8.85s-8.23 3.615-8.23 7.853l-3.563-.125a10.505 10.505 0 013.18-7.604 11.412 11.412 0 018.542-3.303c7.429 0 11.481 4.425 11.481 11.967zm-3.492 5.298l-8.666.499c-5.612.308-8.418 2.365-8.418 6.17 0 3.811 2.37 5.68 7.046 5.68 5.799 0 10.038-3.374 10.038-10.915v-1.434zM269.76 6.731a2.558 2.558 0 01-3.616-3.615c2.12-2.617 6.235 1.496 3.616 3.615zm-.062 41.708h-3.492V16.916h3.492v31.521zM301.62 19.883c2.307 2.306 3.43 5.343 3.43 9.162v19.393h-3.492V29.481c0-5.92-3.741-9.91-9.228-9.91a9.452 9.452 0 00-7.046 2.93 9.953 9.953 0 00-2.743 6.98v18.957h-3.492v-31.52h3.367v5.342c1.497-3.241 5.3-5.921 10.475-5.921a11.51 11.51 0 018.73 3.543zM317.7 0v22.75c1.933-3.802 6.173-6.42 11.909-6.42a14.61 14.61 0 0110.911 4.452c2.93 2.93 4.364 6.919 4.364 11.967 0 5.049-1.434 8.976-4.364 11.905a14.539 14.539 0 01-10.911 4.319c-5.736 0-10.163-2.671-12.096-6.616v6.055h-3.305V0h3.492zm0 31.601v2.12c0 7.915 4.676 12.224 11.579 12.224a11.76 11.76 0 008.667-3.5c2.307-2.368 3.429-5.609 3.429-9.794s-1.122-7.417-3.43-9.723a11.75 11.75 0 00-8.666-3.49c-6.903.009-11.579 4.247-11.579 12.163zM365.53 16.33c4.25-.126 8.37 1.48 11.41 4.452 3.055 2.93 4.552 6.919 4.552 11.842s-1.497 8.904-4.552 11.905c-6.463 5.898-16.358 5.898-22.82 0-2.993-2.992-4.454-6.98-4.454-11.905s1.497-8.904 4.454-11.842a15.662 15.662 0 0111.41-4.452zM356.623 23c-2.307 2.368-3.492 5.609-3.492 9.66 0 4.052 1.185 7.293 3.492 9.723a12.133 12.133 0 008.907 3.562c3.32.1 6.53-1.19 8.854-3.562 2.375-2.433 3.563-5.674 3.563-9.723 0-4.051-1.185-7.292-3.563-9.66-4.975-4.74-12.795-4.74-17.77 0h.009zM419.58 48.438h-2.8l-9.54-25.626-9.67 25.626h-2.74l-11.97-31.52h3.8l9.71 25.902 9.56-25.902h2.49l9.67 25.929 9.6-25.929h3.8z" fill="#273344"/><path d="M12.613 47.788c.157-18.693 15.194-33.852 33.892-34.165V4.648a2.67 2.67 0 00-2.895-2.672C20.684 3.706 2.497 21.986.891 44.912a2.67 2.67 0 002.717 2.877h9.005z" fill="url(#a)"/><path d="M24.228 47.788c.163-12.274 9.992-22.23 22.268-22.554V13.659c-18.68.337-33.691 15.489-33.847 34.165l11.579-.036z" fill="url(#b)" opacity=".7"/><path d="M36.395 45.545a10.99 10.99 0 017.945-8.103 2.939 2.939 0 002.165-2.858v-9.35C34.229 25.56 24.4 35.515 24.237 47.79h9.272a2.948 2.948 0 002.886-2.244z" fill="url(#c)" opacity=".47"/></g></svg>