<?xml version="1.0" encoding="UTF-8"?>
<svg version="1.1" viewBox="0 0 432 65" xmlns="http://www.w3.org/2000/svg">
<title>ripe-logos/rainbow/logo/crop/color</title>
<desc>Created with Sketch.</desc>
<defs>
<linearGradient id="c" x1=".017344%" y1="49.942%" y2="49.942%">
<stop stop-color="#6051F2" offset="0"/>
<stop stop-color="#6963F4" offset=".34"/>
<stop stop-color="#7D8CF9" offset=".95"/>
</linearGradient>
<linearGradient id="b" x1="-.10526%" x2="100.03%" y1="49.883%" y2="49.883%">
<stop stop-color="#6051F2" offset="0"/>
<stop stop-color="#6459F3" offset=".24"/>
<stop stop-color="#6E6DF5" offset=".6"/>
<stop stop-color="#7D8CF9" offset="1"/>
</linearGradient>
<linearGradient id="a" x1="-.04%" y1="49.98%" y2="49.98%">
<stop stop-color="#6051F2" offset="0"/>
<stop stop-color="#645AF3" offset=".1"/>
<stop stop-color="#7275F6" offset=".45"/>
<stop stop-color="#7A86F8" offset=".76"/>
<stop stop-color="#7D8CF9" offset="1"/>
</linearGradient>
</defs>
<g fill="none" fill-rule="evenodd">
<g fill-rule="nonzero">
<path id="Shape" d="m85.198 48.438-9.0675-16.766h-7.8294v16.766h-9.6643v-46.658h19.952c4.5308 0 8.1679 1.3178 10.911 3.9534 2.7434 2.6356 4.1151 6.3011 4.1151 10.997 0.086338 2.859-0.59 5.6894-1.9596 8.2007-1.2791 2.2333-3.2043 4.0275-5.5225 5.1466l9.9137 18.36h-10.849zm-16.959-25.288h9.1655c1.7132 0.076521 3.3864-0.53227 4.6496-1.6918 1.2351-1.2319 1.8836-2.9335 1.7814-4.6747 0.11848-1.7779-0.52994-3.5216-1.7814-4.7904-1.2667-1.1529-2.9382-1.7579-4.6496-1.6829h-9.1655v12.84z" fill="#273344"/>
<path id="Shape" d="m104.59 0.18699c1.464-0.025389 2.8742 0.55075 3.9014 1.5938 1.0402 1.0283 1.6132 2.4379 1.5855 3.9 0.023928 1.4405-0.55005 2.8266-1.5855 3.8288-1.0286 1.0398-2.4387 1.6127-3.9014 1.5849-1.4533 0.033875-2.8547-0.5407-3.8657-1.5849-1.0176-1.012-1.5803-2.394-1.5588-3.8288-0.025884-1.4688 0.56155-2.882 1.6211-3.9 0.99458-1.0315 2.3703-1.608 3.8034-1.5938zm4.5516 48.251h-9.1032v-32.224h9.1032v32.224z" fill="#273344"/>
<path id="Shape" d="m133.83 15.582c4.2436-0.15247 8.3468 1.5317 11.259 4.6212 2.8859 3.0749 4.3289 7.1233 4.3289 12.145s-1.443 9.0792-4.3289 12.172c-2.9155 3.0833-7.0172 4.7636-11.259 4.6123-3.9489 0-6.9625-1.1427-9.0408-3.4281v18.627h-9.1032v-48.082h8.6044v3.339c1.9952-2.6653 5.1751-4.0009 9.5396-4.0068zm-1.4341 7.7911c-2.0709-0.085915-4.079 0.72158-5.5136 2.2171-1.4618 1.6535-2.2138 3.8158-2.0932 6.0192v1.487c-0.1206 2.2034 0.63135 4.3657 2.0932 6.0192 3.136 3.0293 8.1307 2.9577 11.179-0.16027 1.437-1.579 2.1526-3.7813 2.1467-6.6068-0.005975-2.8256-0.72152-5.0249-2.1467-6.5979-1.4425-1.5926-3.5175-2.4634-5.665-2.3774z" fill="#273344"/>
<path id="Shape" d="m184.21 35.225h-22.099c-0.032984 1.7968 0.63834 3.5352 1.8705 4.8438 1.303 1.2203 3.044 1.8625 4.8277 1.7808 3.2422 0 5.2167-1.1872 5.9233-3.5616l9.1655 0.4363c-0.59018 3.0853-2.3975 5.8034-5.0148 7.5418-2.8766 1.9822-6.3051 3.0072-9.7979 2.9295-4.988 0-9.0082-1.5167-12.06-4.55-3.0522-3.0333-4.5813-7.1084-4.5872-12.225 0-5.1466 1.5172-9.2276 4.5516-12.243 3.0344-3.0155 6.9833-4.5233 11.847-4.5233 4.6911 0 8.4322 1.4247 11.223 4.274 2.7909 2.8493 4.1834 6.7671 4.1775 11.753l-0.026741 3.5438zm-15.463-12.528c-1.7332-0.081154-3.4268 0.53448-4.703 1.7096-1.2322 1.2845-1.9241 2.9929-1.9329 4.7726h12.969c0.0289-1.7457-0.57902-3.4423-1.7102-4.7726-1.2219-1.2101-2.9073-1.8334-4.6228-1.7096z" fill="#273344"/>
<path id="Shape" d="m225.25 48.438-11.17-19.705-1.1223 0.062329h-13.361v19.642h-3.6341v-46.658h17.022c3.6492-0.10574 7.2044 1.1658 9.9583 3.5616 2.6187 2.3062 3.9281 5.6096 3.9281 9.9726 0 6.7938-3.4916 11.157-8.9874 12.84l11.481 20.284h-4.1151zm-25.635-22.946h12.907c6.0569 0 10.608-3.4904 10.608-10.222 0-6.7315-4.5516-10.222-10.608-10.222h-12.907v20.444z" fill="#273344"/>
<path id="Shape" d="m257.1 28.297v20.141h-3.5629v-4.737c-2.307 3.5616-5.7986 5.3425-10.475 5.3425-6.048 0-10.038-3.1164-10.038-8.6726s3.9103-8.7705 11.544-9.2068l8.9785-0.56096v-2.2438c0-5.6719-2.6187-8.8507-7.8562-8.8507-5.2374 0-8.2303 3.6151-8.2303 7.8534l-3.5629-0.12466c-0.020265-2.8618 1.1282-5.6081 3.1799-7.6041 2.2609-2.2453 5.3581-3.4431 8.542-3.3034 7.4286 0 11.481 4.4253 11.481 11.967zm-3.4916 5.2979-8.6667 0.49863c-5.6115 0.30868-8.4173 2.3655-8.4173 6.1705 0 3.811 2.3693 5.6808 7.0456 5.6808 5.7986 0 10.038-3.3747 10.038-10.916v-1.4336z" fill="#273344"/>
<path id="Shape" d="m269.76 6.7315c-0.99862 0.99827-2.6177 0.99827-3.6163-9e-8 -0.99862-0.99827-0.99862-2.6168 0-3.6151 2.1199-2.6178 6.2351 1.4959 3.6163 3.6151zm-0.062351 41.707h-3.4916v-31.521h3.4916v31.521z" fill="#273344"/>
<path id="Path" d="m301.62 19.883c2.307 2.3062 3.4293 5.3425 3.4293 9.1623v19.393h-3.4916v-18.957c0-5.9212-3.741-9.9103-9.2279-9.9103-2.656-0.056871-5.2134 1.0064-7.0456 2.9295-1.7899 1.8804-2.7744 4.3853-2.7434 6.9808v18.957h-3.4916v-31.521h3.3669v5.3425c1.4964-3.2411 5.2998-5.9212 10.475-5.9212 3.2823-0.11803 6.4586 1.1715 8.7291 3.5438z" fill="#273344"/>
<path id="e" d="m317.7 0v22.75c1.9329-3.8021 6.1727-6.4199 11.909-6.4199 4.1011-0.11356 8.061 1.5022 10.911 4.4521 2.9305 2.9295 4.3645 6.9185 4.3645 11.967 0 5.0486-1.4341 8.9753-4.3645 11.905-2.8684 2.9084-6.8288 4.4758-10.911 4.3185-5.7362 0-10.163-2.6712-12.096-6.6158v6.0548h-3.3046v-48.412h3.4916zm0 31.601v2.1192c0 7.9158 4.6763 12.225 11.579 12.225 3.2485 0.080909 6.3857-1.1858 8.6667-3.4993 2.307-2.3685 3.4293-5.6096 3.4293-9.7945s-1.1223-7.4171-3.4293-9.7233c-2.282-2.3112-5.4193-3.5747-8.6667-3.4904-6.9031 0.0089041-11.579 4.2473-11.579 12.163z" fill="#273344"/>
<path d="m365.53 16.33c4.2503-0.12622 8.3692 1.4809 11.41 4.4521 3.0552 2.9295 4.5516 6.9185 4.5516 11.842s-1.4964 8.9041-4.5516 11.905c-6.4628 5.8978-16.358 5.8978-22.82 0-2.9928-2.9918-4.4536-6.9808-4.4536-11.905s1.4964-8.9041 4.4536-11.842c3.0409-2.9711 7.1598-4.5783 11.41-4.4521zm-8.9072 6.6692c-2.307 2.3685-3.4916 5.6096-3.4916 9.661 0 4.0514 1.1847 7.2925 3.4916 9.7233 2.3534 2.3602 5.5747 3.6482 8.9072 3.5616 3.3193 0.10073 6.5295-1.1907 8.8538-3.5616 2.3753-2.4338 3.5629-5.6749 3.5629-9.7233 0-4.0514-1.1847-7.2925-3.5629-9.661-4.9749-4.7387-12.795-4.7387-17.77 0h0.008907z" fill="#273344"/>
<polygon id="Path" points="419.58 48.438 416.78 48.438 407.24 22.812 397.57 48.438 394.83 48.438 382.86 16.918 386.66 16.918 396.37 42.82 405.93 16.918 408.42 16.918 418.09 42.847 427.69 16.918 431.49 16.918" fill="#273344"/>
<path id="Path" d="m12.613 47.788c0.15683-18.693 15.194-33.852 33.892-34.165v-8.9753c0.0025895-0.74877-0.3093-1.4642-0.85969-1.9721-0.55039-0.50788-1.2887-0.76151-2.0352-0.69911-22.926 1.7295-41.113 20.009-42.719 42.936-0.057915 0.75103 0.20406 1.4916 0.72139 2.0393s1.2419 0.85155 1.9953 0.83676h9.0052z" fill="url(#c)"/>
<path id="d" d="m24.228 47.788c0.16309-12.274 9.9925-22.23 22.268-22.554v-11.575c-18.68 0.33717-33.691 15.489-33.847 34.165l11.579-0.035616z" fill="url(#b)" opacity=".7"/>
<path d="m36.395 45.545c0.94062-3.9647 3.9988-7.0834 7.9452-8.1027 1.2866-0.35148 2.1753-1.5249 2.1646-2.8582v-9.3493c-12.276 0.32397-22.105 10.28-22.268 22.554h9.2724c1.3658 0.010484 2.56-0.91804 2.8859-2.2439z" fill="url(#a)" opacity=".47"/>
</g>
</g>
</svg>
