<?xml version="1.0" encoding="UTF-8"?>
<svg viewBox="0 0 611 156" xmlns="http://www.w3.org/2000/svg">
<defs>
<linearGradient id="a" x1="95.952%" x2="0%" y1="51.663%" y2="49.174%">
<stop stop-color="#FB0000" offset="0"/>
<stop stop-color="#FC6D0F" offset=".09589"/>
<stop stop-color="#FECF00" offset=".20257"/>
<stop stop-color="#90E30F" offset=".37831"/>
<stop stop-color="#00DE94" offset=".52744"/>
<stop stop-color="#00BEEB" offset=".66926"/>
<stop stop-color="#4052E3" offset=".85855"/>
<stop stop-color="#E519EF" offset="1"/>
</linearGradient>
</defs>
<g fill-rule="evenodd">
<g fill="gray">
<path d="M72 0l2.85 5H92V0zM75 18h16v-5H75zM92 28H74.806L72 33h20zM7.795 15.024h9.504c1.854 0 3.259-.443 4.219-1.32.958-.878 1.435-2.195 1.435-3.95 0-1.048-.155-1.903-.463-2.565-.308-.662-.733-1.179-1.273-1.548a4.695 4.695 0 0 0-1.856-.74 12.271 12.271 0 0 0-2.155-.186H7.795v10.309zM2 0h15.808c3.648 0 6.383.786 8.205 2.36 1.825 1.572 2.735 3.758 2.735 6.56 0 1.574-.231 2.877-.695 3.906-.463 1.033-1.003 1.864-1.622 2.498-.618.63-1.227 1.086-1.83 1.362-.604.276-1.043.464-1.323.555v.092c.495.062 1.027.217 1.6.462.572.248 1.104.641 1.599 1.18.494.537.905 1.24 1.23 2.102.325.862.487 1.938.487 3.234 0 1.943.146 3.705.44 5.29.293 1.59.75 2.723 1.366 3.399h-6.21a5.364 5.364 0 0 1-.767-2.355 28.313 28.313 0 0 1-.115-2.498c0-1.507-.093-2.81-.28-3.905-.183-1.093-.525-2.003-1.017-2.725a4.314 4.314 0 0 0-2.018-1.595c-.85-.34-1.94-.51-3.268-.51h-8.53V33H2V0zM34 33h6V0h-6zM51.825 15.624h8.526c.653 0 1.322-.093 2.004-.279a5.715 5.715 0 0 0 1.887-.9c.574-.417 1.04-.97 1.398-1.662.358-.696.538-1.567.538-2.612 0-1.08-.156-1.972-.466-2.682-.312-.71-.732-1.271-1.26-1.686a4.488 4.488 0 0 0-1.818-.855 9.874 9.874 0 0 0-2.19-.233h-8.62v10.909zM46 0h14.677c2.36 0 4.288.34 5.78 1.017 1.49.678 2.638 1.526 3.447 2.545a8.568 8.568 0 0 1 1.654 3.325c.296 1.202.442 2.312.442 3.329 0 1.017-.146 2.12-.442 3.303-.295 1.188-.845 2.288-1.654 3.305-.81 1.02-1.957 1.857-3.448 2.52-1.49.664-3.419.992-5.779.992h-8.852V33H46V0z"/>
</g>
<path d="m0.694 69.763h21.735v15.456h0.322a28.116 28.116 0 0 1 4.347 -7.164 28.479 28.479 0 0 1 6.279 -5.636 30.68 30.68 0 0 1 7.567 -3.622 27.3 27.3 0 0 1 8.372 -1.288c1.503 0 3.166 0.268 4.991 0.805v21.252c-1.073-0.215-2.361-0.402-3.864-0.564a40.828 40.828 0 0 0 -4.347 -0.241c-4.186 0-7.728 0.698-10.626 2.093s-5.232 3.3-7.003 5.716c-1.772 2.415-3.033 5.232-3.784 8.452s-1.127 6.708-1.127 10.465v37.513h-22.862v-83.237zm61.663 25.599c0.322-5.367 1.664-9.821 4.025-13.363a27.408 27.408 0 0 1 9.016 -8.533c3.65-2.147 7.755-3.676 12.317-4.588a70.023 70.023 0 0 1 13.765 -1.369c4.186 0 8.426 0.295 12.719 0.885s8.211 1.745 11.753 3.462 6.44 4.105 8.694 7.165c2.254 3.059 3.381 7.11 3.381 12.155v43.309c0 3.757 0.215 7.352 0.644 10.787 0.43 3.435 1.18 6.01 2.254 7.728h-23.184a32.807 32.807 0 0 1 -1.046 -3.945 34.347 34.347 0 0 1 -0.564 -4.105c-3.65 3.757-7.943 6.386-12.88 7.889a51.697 51.697 0 0 1 -15.134 2.254c-3.971 0-7.674-0.483-11.109-1.449s-6.44-2.469-9.016-4.508c-2.576-2.04-4.588-4.615-6.038-7.728-1.449-3.113-2.173-6.816-2.173-11.109 0-4.723 0.832-8.613 2.495-11.673 1.664-3.059 3.81-5.5 6.44-7.325s5.635-3.193 9.017-4.106a96.249 96.249 0 0 1 10.223 -2.173c3.435-0.537 6.816-0.966 10.143-1.288s6.279-0.805 8.855-1.449 4.615-1.583 6.118-2.817c1.503-1.235 2.2-3.033 2.093-5.394 0-2.469-0.402-4.427-1.208-5.876-0.805-1.45-1.878-2.576-3.22-3.381-1.341-0.806-2.897-1.342-4.668-1.61-1.772-0.269-3.677-0.403-5.716-0.403-4.508 0-8.05 0.966-10.626 2.898s-4.079 5.152-4.508 9.66h-22.862zm52.808 16.905c-0.966 0.859-2.173 1.53-3.623 2.013a36.998 36.998 0 0 1 -4.668 1.207c-1.664 0.322-3.408 0.59-5.233 0.805s-3.65 0.483-5.474 0.805a41.286 41.286 0 0 0 -5.072 1.288c-1.663 0.537-3.112 1.261-4.346 2.173a10.332 10.332 0 0 0 -2.979 3.462c-0.751 1.395-1.127 3.166-1.127 5.313 0 2.04 0.376 3.757 1.127 5.152s1.771 2.495 3.059 3.3c1.288 0.806 2.79 1.369 4.508 1.691 1.717 0.322 3.488 0.483 5.313 0.483 4.508 0 7.996-0.751 10.465-2.254s4.293-3.3 5.474-5.394c1.18-2.093 1.905-4.212 2.174-6.359 0.268-2.147 0.402-3.864 0.402-5.152v-8.533zm64.078-55.384h-22.862v-18.837h22.862v18.837zm-22.862 12.88h22.862v83.237h-22.862v-83.237zm40.894 0h21.735v11.592h0.483c2.898-4.83 6.655-8.345 11.27-10.546 4.615-2.2 9.338-3.3 14.168-3.3 6.118 0 11.136 0.832 15.054 2.495 3.917 1.664 7.003 3.972 9.257 6.923 2.254 2.952 3.837 6.548 4.75 10.787 0.912 4.24 1.368 8.936 1.368 14.088v51.198h-22.862v-47.012c0-6.87-1.073-11.994-3.22-15.376-2.147-3.38-5.957-5.071-11.431-5.071-6.225 0-10.733 1.851-13.524 5.555-2.79 3.703-4.186 9.794-4.186 18.273v43.631h-22.862v-83.237zm156.49 41.699c0-3.542-0.376-6.923-1.127-10.143s-1.932-6.064-3.542-8.533-3.622-4.427-6.038-5.877c-2.415-1.449-5.34-2.173-8.774-2.173-3.327 0-6.225 0.724-8.694 2.173-2.469 1.45-4.508 3.408-6.118 5.877s-2.79 5.313-3.542 8.533c-0.751 3.22-1.127 6.601-1.127 10.143 0 3.435 0.376 6.762 1.127 9.982s1.932 6.064 3.542 8.533 3.65 4.427 6.118 5.876c2.469 1.45 5.367 2.174 8.694 2.174 3.435 0 6.36-0.724 8.774-2.173 2.416-1.45 4.428-3.408 6.038-5.877s2.79-5.313 3.542-8.533a43.786 43.786 0 0 0 1.127 -9.982zm-61.019-73.416h22.862v41.86h0.322c2.79-4.293 6.574-7.433 11.35-9.419a38.426 38.426 0 0 1 14.893 -2.978c4.186 0 8.318 0.859 12.397 2.576s7.755 4.347 11.029 7.889c3.273 3.542 5.93 8.077 7.969 13.605 2.04 5.527 3.059 12.101 3.059 19.722 0 7.62-1.02 14.195-3.059 19.723-2.04 5.527-4.696 10.062-7.97 13.604-3.273 3.542-6.95 6.172-11.028 7.889-4.079 1.717-8.211 2.576-12.397 2.576-6.118 0-11.592-0.966-16.422-2.898s-8.48-5.206-10.948-9.821h-0.322v10.626h-21.735v-114.95zm158.61 61.652l20.202 20.235c1.169 1.17 1.708 2.877 1.304 4.483-1.845 7.31-5.46 13.568-10.87 18.758-8.217 7.883-18.407 11.826-30.559 11.826-12.156 0-22.267-3.943-30.335-11.826-8.07-7.884-12.104-18.208-12.104-30.987 0-12.77 4.086-23.053 12.254-30.834 5.307-5.057 11.454-8.453 18.425-10.218 1.601-0.408 3.3 0.133 4.467 1.301l16.046 16.072c0.29 0.292-0.026 0.78-0.4 0.617-2.456-1.05-5.117-1.598-7.985-1.635a20.729 20.729 0 0 0 -8.938 1.938c-8.34 3.877-12.5 11.51-12.5 22.91 0 7.985 2.04 14.12 6.129 18.41 4.082 4.294 9.062 6.436 14.941 6.436 5.877 0 10.931-2.168 15.166-6.508 4.234-4.342 6.35-10.481 6.35-18.41 0-4.702-0.746-8.75-2.219-12.165-0.16-0.377 0.336-0.695 0.625-0.403zm133.28 53.302h-23.506l-14.812-55.867h-0.322l-14.167 55.867h-23.667l-26.404-83.237h24.15l15.295 56.511h0.322l13.846-56.511h22.218l14.168 56.35h0.322l15.295-56.35h23.506l-26.243 83.237z" fill="url(#a)" fill-rule="nonzero"/>
<path d="M446.902 71.104c-1.69 0-2.539 2.044-1.342 3.239l24.2 24.202c1.198 1.195 3.242.345 3.24-1.342l-.02-24.185a1.895 1.895 0 0 0-1.894-1.895l-24.184-.02z" fill="#FB0501"/>
</g>
</svg>
