<svg width="432" height="65" viewBox="0 0 432 65" xmlns="http://www.w3.org/2000/svg"><defs><linearGradient x1=".017%" y1="49.942%" x2="100%" y2="49.942%" id="a"><stop stop-color="#6051F2" offset="0%"/><stop stop-color="#6963F4" offset="34%"/><stop stop-color="#7D8CF9" offset="95%"/></linearGradient><linearGradient x1="-.105%" y1="49.883%" x2="100.026%" y2="49.883%" id="b"><stop stop-color="#6051F2" offset="0%"/><stop stop-color="#6459F3" offset="24%"/><stop stop-color="#6E6DF5" offset="60%"/><stop stop-color="#7D8CF9" offset="100%"/></linearGradient><linearGradient x1="-.04%" y1="49.98%" x2="100%" y2="49.98%" id="c"><stop stop-color="#6051F2" offset="0%"/><stop stop-color="#645AF3" offset="10%"/><stop stop-color="#7275F6" offset="45%"/><stop stop-color="#7A86F8" offset="76%"/><stop stop-color="#7D8CF9" offset="100%"/></linearGradient></defs><g fill="none"><path d="M85.198 48.438L76.13 31.672H68.3v16.766h-9.664V1.781h19.952c4.531 0 8.168 1.318 10.912 3.953 2.743 2.636 4.115 6.301 4.115 10.997.086 2.859-.59 5.69-1.96 8.2a12.753 12.753 0 01-5.522 5.147l9.914 18.36h-10.85zm-16.96-25.287h9.166a6.45 6.45 0 004.65-1.692 6.098 6.098 0 001.78-4.675 6.232 6.232 0 00-1.78-4.79 6.486 6.486 0 00-4.65-1.683h-9.166v12.84zM104.589.187a5.345 5.345 0 013.9 1.594 5.342 5.342 0 011.586 3.9 5.208 5.208 0 01-1.585 3.829 5.345 5.345 0 01-3.901 1.585 5.212 5.212 0 01-3.866-1.585 5.288 5.288 0 01-1.559-3.83 5.28 5.28 0 011.621-3.9A5.212 5.212 0 01104.59.188zm4.551 48.251h-9.103V16.214h9.103v32.224zm24.69-32.856a14.744 14.744 0 0111.26 4.621c2.886 3.075 4.329 7.124 4.329 12.146 0 5.022-1.443 9.079-4.33 12.172a14.77 14.77 0 01-11.258 4.612c-3.949 0-6.963-1.143-9.04-3.428v18.627h-9.104V16.25h8.604v3.339c1.996-2.665 5.175-4 9.54-4.007zm-1.433 7.791a7.225 7.225 0 00-5.514 2.217 8.395 8.395 0 00-2.093 6.02v1.487a8.395 8.395 0 002.093 6.019 7.93 7.93 0 0011.179-.16c1.437-1.58 2.152-3.782 2.147-6.607-.006-2.826-.722-5.025-2.147-6.598a7.252 7.252 0 00-5.665-2.378zm51.813 11.852h-22.099a6.882 6.882 0 001.87 4.843 6.62 6.62 0 004.829 1.781c3.242 0 5.216-1.187 5.923-3.561l9.165.436a11.69 11.69 0 01-5.014 7.542 16.616 16.616 0 01-9.798 2.93c-4.988 0-9.008-1.517-12.06-4.55-3.053-3.034-4.582-7.11-4.588-12.226 0-5.147 1.517-9.228 4.552-12.243 3.034-3.016 6.983-4.524 11.846-4.524 4.691 0 8.432 1.425 11.223 4.274 2.791 2.85 4.184 6.768 4.178 11.754l-.027 3.544zm-15.463-12.528a6.495 6.495 0 00-4.703 1.71 6.944 6.944 0 00-1.933 4.772h12.97a7.184 7.184 0 00-1.71-4.773 5.96 5.96 0 00-4.624-1.71zm56.499 25.741l-11.17-19.704-1.122.062h-13.361v19.642h-3.634V1.781h17.021a14.53 14.53 0 019.959 3.561c2.618 2.307 3.928 5.61 3.928 9.973 0 6.794-3.492 11.157-8.988 12.84l11.482 20.283h-4.115zM199.61 25.492h12.906c6.057 0 10.609-3.49 10.609-10.221 0-6.732-4.552-10.222-10.609-10.222H199.61v20.443zm57.488 2.805v20.141h-3.563v-4.737c-2.307 3.562-5.799 5.343-10.475 5.343-6.048 0-10.038-3.117-10.038-8.673s3.91-8.77 11.543-9.207l8.979-.56V28.36c0-5.672-2.619-8.851-7.856-8.851-5.238 0-8.23 3.615-8.23 7.853l-3.563-.124a10.505 10.505 0 013.18-7.604 11.412 11.412 0 018.541-3.304c7.43 0 11.482 4.425 11.482 11.967zm-3.492 5.298l-8.666.499c-5.612.309-8.418 2.365-8.418 6.17 0 3.811 2.37 5.681 7.046 5.681 5.798 0 10.038-3.374 10.038-10.916v-1.434zm16.149-26.863a2.558 2.558 0 01-3.616-3.616c2.12-2.617 6.235 1.496 3.616 3.616zm-.062 41.706H266.2v-31.52h3.492v31.52zm31.923-28.555c2.307 2.306 3.43 5.342 3.43 9.162v19.393h-3.492V29.482c0-5.922-3.741-9.91-9.228-9.91a9.452 9.452 0 00-7.046 2.929 9.953 9.953 0 00-2.743 6.98v18.957h-3.492v-31.52h3.367v5.342c1.497-3.24 5.3-5.921 10.475-5.921a11.51 11.51 0 018.73 3.544zM317.703 0v22.75c1.932-3.802 6.172-6.42 11.909-6.42a14.61 14.61 0 0110.91 4.452c2.931 2.93 4.365 6.919 4.365 11.967 0 5.049-1.434 8.976-4.364 11.905a14.54 14.54 0 01-10.911 4.319c-5.737 0-10.164-2.672-12.096-6.616v6.055h-3.305V0h3.492zm0 31.6v2.12c0 7.916 4.676 12.225 11.579 12.225a11.76 11.76 0 008.667-3.5c2.307-2.368 3.429-5.609 3.429-9.794 0-4.185-1.122-7.417-3.43-9.723a11.75 11.75 0 00-8.666-3.49c-6.903.009-11.58 4.247-11.58 12.163zm47.822-15.27a15.662 15.662 0 0111.41 4.452c3.056 2.93 4.552 6.919 4.552 11.843s-1.496 8.904-4.551 11.904c-6.463 5.898-16.358 5.898-22.82 0-2.994-2.991-4.454-6.98-4.454-11.904 0-4.924 1.496-8.904 4.453-11.843a15.662 15.662 0 0111.41-4.452zM356.618 23c-2.307 2.368-3.491 5.609-3.491 9.66 0 4.052 1.184 7.293 3.491 9.724a12.134 12.134 0 008.907 3.561c3.32.1 6.53-1.19 8.854-3.561 2.375-2.434 3.563-5.675 3.563-9.724 0-4.051-1.185-7.292-3.563-9.66-4.975-4.74-12.795-4.74-17.77 0h.01zm62.965 25.438h-2.805l-9.54-25.626-9.664 25.626h-2.744l-11.971-31.52h3.803l9.71 25.902 9.557-25.902h2.494l9.664 25.929 9.602-25.93h3.803z" fill="#273344"/><path d="M12.613 47.788c.156-18.693 15.194-33.851 33.892-34.165V4.648a2.67 2.67 0 00-2.895-2.671C20.684 3.707 2.497 21.985.89 44.912a2.67 2.67 0 002.717 2.876h9.006z" fill="url(#a)"/><path d="M24.228 47.788c.163-12.274 9.992-22.23 22.268-22.554V13.66c-18.68.337-33.691 15.489-33.848 34.165l11.58-.036z" fill="url(#b)" opacity=".7"/><path d="M36.395 45.545a10.99 10.99 0 017.945-8.103 2.939 2.939 0 002.165-2.858v-9.35c-12.276.324-22.105 10.28-22.268 22.554h9.272a2.948 2.948 0 002.886-2.243z" fill="url(#c)" opacity=".47"/></g></svg>